<?xml version="1.0" encoding="UTF-8" standalone="no"?>
<!-- Created with Inkscape (http://www.inkscape.org/) -->

<svg
   xmlns:osb="http://www.openswatchbook.org/uri/2009/osb"
   xmlns:dc="http://purl.org/dc/elements/1.1/"
   xmlns:cc="http://creativecommons.org/ns#"
   xmlns:rdf="http://www.w3.org/1999/02/22-rdf-syntax-ns#"
   xmlns:svg="http://www.w3.org/2000/svg"
   xmlns="http://www.w3.org/2000/svg"
   xmlns:sodipodi="http://sodipodi.sourceforge.net/DTD/sodipodi-0.dtd"
   xmlns:inkscape="http://www.inkscape.org/namespaces/inkscape"
   width="50.319294mm"
   height="7.9734874mm"
   viewBox="0 0 50.319294 7.9734874"
   version="1.1"
   id="svg1389"
   sodipodi:docname="logo.svg"
   inkscape:version="0.92.4 (5da689c313, 2019-01-14)">
  <defs
     id="defs1383">
    <linearGradient
       id="linearGradient3705"
       osb:paint="solid">
      <stop
         style="stop-color:#27196f;stop-opacity:1;"
         offset="0"
         id="stop3703" />
    </linearGradient>
    <inkscape:perspective
       sodipodi:type="inkscape:persp3d"
       inkscape:vp_x="0 : 148.5 : 1"
       inkscape:vp_y="0 : 999.99999 : 0"
       inkscape:vp_z="210.00001 : 148.5 : 1"
       inkscape:persp3d-origin="105.00001 : 98.999999 : 1"
       id="perspective2165" />
  </defs>
  <sodipodi:namedview
     id="base"
     pagecolor="#ffffff"
     bordercolor="#666666"
     borderopacity="1.0"
     inkscape:pageopacity="0.0"
     inkscape:pageshadow="2"
     inkscape:zoom="11.313709"
     inkscape:cx="125.30495"
     inkscape:cy="17.388012"
     inkscape:document-units="mm"
     inkscape:current-layer="layer1"
     showgrid="false"
     inkscape:window-width="3840"
     inkscape:window-height="2004"
     inkscape:window-x="-16"
     inkscape:window-y="-16"
     inkscape:window-maximized="1"
     fit-margin-top="0"
     fit-margin-left="0"
     fit-margin-right="0"
     fit-margin-bottom="0" />
  <metadata
     id="metadata1386">
    <rdf:RDF>
      <cc:Work
         rdf:about="">
        <dc:format>image/svg+xml</dc:format>
        <dc:type
           rdf:resource="http://purl.org/dc/dcmitype/StillImage" />
        <dc:title />
      </cc:Work>
    </rdf:RDF>
  </metadata>
  <g
     inkscape:label="レイヤー 1"
     inkscape:groupmode="layer"
     id="layer1"
     transform="translate(-80.303318,-255.29847)">
    <path
       style="fill:none;stroke:#000000;stroke-width:0.01;stroke-linecap:butt;stroke-linejoin:miter;stroke-miterlimit:4;stroke-dasharray:none;stroke-opacity:1"
       d="m 80.656575,255.68838 v 7.15792 h 3.750233 v -7.16383 z"
       id="path2141"
       inkscape:connector-curvature="0" />
    <path
       style="opacity:1;fill:#27196f;fill-opacity:1;stroke:#282c00;stroke-width:0.00084364;stroke-miterlimit:4;stroke-dasharray:none;stroke-opacity:1"
       d="m 303.51463,979.9425 0.006,-14.98326 23.43661,-0.0163 c 8.55938,-3.4e-4 17.46665,-0.0333 23.86864,-0.0349 l -0.65564,0.68876 c -0.318,0.3507 -0.88248,0.97118 -1.25441,1.37886 -0.40053,0.43903 -0.66986,0.75152 -0.66061,0.76649 0.009,0.0147 0.006,0.0191 -0.008,0.0105 -0.0286,-0.0177 -0.46433,0.44709 -0.45993,0.49051 0.002,0.0166 -0.004,0.0258 -0.0129,0.0203 -0.0292,-0.0181 -0.25333,0.22729 -0.23487,0.25717 0.0107,0.0173 0.008,0.0223 -0.007,0.0132 -0.0263,-0.0163 -1.17055,1.22012 -1.16091,1.25445 0.003,0.0117 -10e-4,0.0197 -0.01,0.0179 -0.0315,-0.007 -0.24136,0.21972 -0.23032,0.2485 0.006,0.0162 0.002,0.024 -0.009,0.0172 -0.0263,-0.0162 -0.45589,0.44848 -0.43935,0.47525 0.007,0.0114 -0.002,0.0331 -0.0204,0.0483 -0.0183,0.0152 -0.0332,0.0192 -0.0332,0.009 0,-0.0102 -0.0454,0.026 -0.10089,0.0805 -0.0555,0.0545 -0.0963,0.11106 -0.0906,0.12578 0.0109,0.0284 -0.0391,0.0822 -0.0584,0.0629 -0.0185,-0.0185 -0.66668,0.6986 -0.66014,0.73041 0.003,0.016 -0.005,0.027 -0.0195,0.0243 -0.0315,-0.006 -0.44306,0.43649 -0.4239,0.45565 0.0185,0.0185 -0.0308,0.0762 -0.0532,0.0623 -0.024,-0.0148 -0.67513,0.69811 -0.66,0.7226 0.007,0.0107 -0.008,0.0374 -0.0321,0.0594 -0.0243,0.022 -0.0441,0.0314 -0.0441,0.0209 0,-0.0104 -0.0354,0.0153 -0.0786,0.0572 -0.0433,0.0419 -0.0741,0.0882 -0.0685,0.10273 0.0109,0.0284 -0.0608,0.10553 -0.0801,0.0862 -0.0181,-0.0181 -0.42479,0.43224 -0.41078,0.4549 0.007,0.0111 -0.002,0.0326 -0.0207,0.0478 -0.0183,0.0152 -0.0332,0.0193 -0.0332,0.009 0,-0.0101 -0.0404,0.021 -0.0898,0.0692 -0.0494,0.0482 -0.0852,0.0995 -0.0796,0.11404 0.0106,0.0277 -0.0607,0.10558 -0.0794,0.0868 -0.0173,-0.0173 -0.40264,0.41008 -0.38929,0.43168 0.007,0.0107 -0.008,0.0375 -0.0321,0.0594 -0.0243,0.022 -0.0441,0.0314 -0.0441,0.0209 0,-0.0104 -0.0354,0.0153 -0.0786,0.0572 -0.0433,0.0419 -0.0741,0.088 -0.0686,0.10245 0.0107,0.0279 -0.0827,0.12844 -0.10166,0.10948 -0.0174,-0.0174 -0.38053,0.38738 -0.36708,0.40913 0.007,0.0106 -0.0129,0.0426 -0.0432,0.0711 -0.0303,0.0285 -0.0551,0.0431 -0.0551,0.0326 0,-0.0106 -0.0304,0.01 -0.0675,0.0455 -0.0371,0.0356 -0.063,0.0765 -0.0575,0.0909 0.0105,0.0274 -0.10452,0.15147 -0.12316,0.13284 -0.017,-0.017 -0.38091,0.38718 -0.36774,0.4085 0.007,0.0106 -0.0129,0.0425 -0.0432,0.071 -0.0303,0.0285 -0.0551,0.0431 -0.0551,0.0326 0,-0.0106 -0.0304,0.01 -0.0675,0.0455 -0.0371,0.0356 -0.063,0.0765 -0.0575,0.0909 0.0102,0.0265 -0.10356,0.15057 -0.13143,0.14338 -0.0254,-0.007 -0.35016,0.35456 -0.33742,0.37519 0.007,0.0106 -0.0178,0.0478 -0.0542,0.0827 -0.0364,0.0349 -0.0662,0.0547 -0.0662,0.0442 0,-0.0106 -0.0254,0.005 -0.0565,0.0338 -0.031,0.0292 -0.0519,0.0649 -0.0463,0.0795 0.0106,0.0278 -0.10442,0.15171 -0.12331,0.13282 -0.017,-0.017 -0.35854,0.36481 -0.34536,0.38613 0.006,0.0104 -0.0231,0.0526 -0.0656,0.0938 -0.0425,0.0412 -0.0772,0.0661 -0.0772,0.0555 0,-0.0107 -0.0254,0.004 -0.0565,0.0336 -0.0311,0.0292 -0.0519,0.0649 -0.0463,0.0795 0.0106,0.0278 -0.10441,0.15171 -0.1233,0.13282 -0.017,-0.017 -0.35854,0.36481 -0.34537,0.38613 0.006,0.0104 -0.0231,0.0526 -0.0656,0.0938 -0.0425,0.0412 -0.0773,0.0661 -0.0773,0.0555 0,-0.0107 -0.0254,0.004 -0.0565,0.0336 -0.031,0.0292 -0.0519,0.0649 -0.0463,0.0795 0.0102,0.0267 -0.10335,0.15082 -0.13135,0.1436 -0.0254,-0.007 -0.35016,0.35456 -0.33741,0.37519 0.007,0.0106 -0.0178,0.0478 -0.0542,0.0827 -0.0364,0.0349 -0.0662,0.0547 -0.0662,0.0442 0,-0.0106 -0.0254,0.005 -0.0565,0.0338 -0.0311,0.0292 -0.0519,0.0649 -0.0464,0.0793 0.0103,0.027 -0.11656,0.16425 -0.15036,0.16265 -0.0313,-0.001 -0.33117,0.33554 -0.31778,0.35721 0.007,0.0111 -0.005,0.0338 -0.0264,0.0506 -0.0359,0.0281 -0.0363,0.0271 -0.006,-0.0142 0.0328,-0.0443 0.0327,-0.0443 -0.0171,-0.002 l -0.0502,0.0428 0.048,0.051 c 0.0264,0.0281 0.0587,0.049 0.0719,0.0465 0.0132,-0.003 0.0244,0.0105 0.0249,0.0289 5.6e-4,0.0184 0.0161,0.0337 0.0345,0.034 0.0184,2.7e-4 0.031,0.016 0.0279,0.0349 -0.006,0.0351 0.10887,0.16049 0.14302,0.15654 0.0103,-0.001 0.0193,0.0104 0.0198,0.0257 5.6e-4,0.0154 0.0128,0.0255 0.0271,0.0226 0.0143,-0.003 0.0212,0.007 0.0152,0.023 -0.0108,0.0282 0.13487,0.18691 0.16439,0.17907 0.009,-0.002 0.013,0.008 0.01,0.0233 -0.006,0.0288 0.17667,0.22 0.20966,0.21977 0.0105,-7e-5 0.0163,0.01 0.013,0.0214 -0.007,0.0257 0.37666,0.44792 0.39266,0.43192 0.0191,-0.0191 0.0688,0.0351 0.058,0.0633 -0.0103,0.0269 0.15753,0.20721 0.18702,0.20091 0.009,-0.002 0.0129,0.006 0.01,0.0182 -0.008,0.03 0.37401,0.44205 0.40495,0.4363 0.0139,-0.003 0.0227,0.0108 0.0197,0.0298 -0.005,0.0341 0.1729,0.22707 0.20965,0.22681 0.0105,-7e-5 0.0163,0.01 0.0129,0.0217 -0.009,0.0306 0.37297,0.44214 0.40447,0.43618 0.0142,-0.003 0.0233,0.0106 0.0203,0.0296 -0.005,0.0341 0.1729,0.22707 0.20966,0.22681 0.0105,-7e-5 0.0163,0.01 0.0129,0.0217 -0.009,0.0306 0.37297,0.44213 0.40447,0.43618 0.0142,-0.003 0.0233,0.0107 0.0203,0.0297 -0.005,0.034 0.16011,0.21415 0.19076,0.2076 0.009,-0.002 0.0129,0.006 0.01,0.0183 -0.009,0.0336 0.39924,0.46602 0.42525,0.44995 0.0139,-0.009 0.0162,-0.003 0.006,0.0137 -0.0208,0.0337 0.18522,0.25177 0.21844,0.23124 0.0124,-0.008 0.015,-0.002 0.006,0.0125 -0.0178,0.0288 0.36115,0.45543 0.38916,0.43812 0.0229,-0.0141 0.0699,0.0452 0.0509,0.0642 -0.0185,0.0185 0.17258,0.21726 0.19529,0.20323 0.009,-0.005 0.0147,0.003 0.013,0.0198 -0.004,0.0397 0.58332,0.68473 0.61752,0.67808 0.0147,-0.003 0.0241,0.008 0.0208,0.0238 -0.003,0.0159 0.0914,0.13646 0.21024,0.26785 0.65533,0.72423 0.84009,0.91835 0.86151,0.90512 0.0141,-0.009 0.0171,-0.004 0.007,0.0117 -0.01,0.016 0.0607,0.11113 0.18064,0.24341 0.50223,0.55367 0.6394,0.69524 0.66079,0.68201 0.0134,-0.008 0.0163,-0.003 0.007,0.012 -0.01,0.0159 0.0616,0.11168 0.18161,0.24341 0.10879,0.11946 0.34652,0.38042 0.52828,0.57991 0.1828,0.20062 0.34105,0.35619 0.35411,0.34811 0.0137,-0.008 0.0171,-0.004 0.008,0.0107 -0.009,0.0149 0.14456,0.20224 0.37381,0.45546 1.21065,1.33727 1.52815,1.67956 1.55283,1.67403 0.0151,-0.003 0.021,0.004 0.0132,0.0169 -0.008,0.0126 0.17006,0.22634 0.39528,0.47488 0.22521,0.24855 0.70986,0.78337 1.07699,1.18851 0.95905,1.05833 1.79244,1.98525 1.84486,2.05189 l 0.0452,0.0575 H 327.1379 303.50903 Z m 15.50782,-0.0391 v -13.54911 c -14.19642,0.0296 -9.96705,-0.0151 -14.19642,0.0296 v 13.53429 13.53429 h 7.09821 7.09821 z m 18.62864,-0.56362 0.0656,-0.0725 -0.0725,0.0656 c -0.0676,0.0611 -0.0828,0.0795 -0.0656,0.0795 0.004,0 0.0365,-0.0326 0.0725,-0.0725 z m 0.23297,-0.25111 c 0.0288,-0.0307 0.0474,-0.0558 0.0413,-0.0558 -0.006,0 -0.0348,0.0251 -0.0636,0.0558 -0.0288,0.0307 -0.0474,0.0558 -0.0413,0.0558 0.006,0 0.0348,-0.0251 0.0636,-0.0558 z m 0.46875,-0.5134 c 0.0288,-0.0307 0.0474,-0.0558 0.0413,-0.0558 -0.006,0 -0.0348,0.0251 -0.0636,0.0558 -0.0288,0.0307 -0.0474,0.0558 -0.0413,0.0558 0.006,0 0.0348,-0.0251 0.0636,-0.0558 z m 0.23578,-0.26227 0.0656,-0.0725 -0.0725,0.0656 c -0.0676,0.0611 -0.0828,0.0795 -0.0656,0.0795 0.004,0 0.0365,-0.0326 0.0725,-0.0725 z m 0.47851,-0.51898 c 0.0288,-0.0307 0.0474,-0.0558 0.0413,-0.0558 -0.006,0 -0.0348,0.0251 -0.0636,0.0558 -0.0288,0.0307 -0.0474,0.0558 -0.0413,0.0558 0.006,0 0.0347,-0.0251 0.0636,-0.0558 z m 0.23578,-0.26227 0.0656,-0.0725 -0.0726,0.0656 c -0.0676,0.0611 -0.0828,0.0795 -0.0656,0.0795 0.004,0 0.0365,-0.0326 0.0726,-0.0725 z m 0.4785,-0.51898 c 0.0288,-0.0307 0.0474,-0.0558 0.0413,-0.0558 -0.006,0 -0.0348,0.0251 -0.0636,0.0558 -0.0288,0.0307 -0.0474,0.0558 -0.0413,0.0558 0.006,0 0.0347,-0.0251 0.0636,-0.0558 z m 0.22322,-0.24553 c 0.0288,-0.0307 0.0474,-0.0558 0.0413,-0.0558 -0.006,0 -0.0348,0.0251 -0.0636,0.0558 -0.0288,0.0307 -0.0474,0.0558 -0.0413,0.0558 0.006,0 0.0347,-0.0251 0.0636,-0.0558 z m 0.46875,-0.51339 c 0.0288,-0.0307 0.0474,-0.0558 0.0413,-0.0558 -0.006,0 -0.0348,0.0251 -0.0636,0.0558 -0.0288,0.0307 -0.0474,0.0558 -0.0413,0.0558 0.006,0 0.0347,-0.0251 0.0636,-0.0558 z m 0.23437,-0.2567 c 0.0222,-0.0246 0.0354,-0.0446 0.0292,-0.0446 -0.006,0 -0.0293,0.0201 -0.0516,0.0446 -0.0222,0.0245 -0.0354,0.0446 -0.0292,0.0446 0.006,0 0.0293,-0.0201 0.0516,-0.0446 z m 0.47991,-0.52455 c 0.0288,-0.0307 0.0474,-0.0558 0.0413,-0.0558 -0.006,0 -0.0348,0.0251 -0.0636,0.0558 -0.0288,0.0307 -0.0474,0.0558 -0.0413,0.0558 0.006,0 0.0347,-0.0251 0.0636,-0.0558 z m 0.23438,-0.2567 c 0.0222,-0.0246 0.0354,-0.0446 0.0292,-0.0446 -0.006,0 -0.0293,0.0201 -0.0516,0.0446 -0.0222,0.0245 -0.0354,0.0446 -0.0292,0.0446 0.006,0 0.0293,-0.0201 0.0516,-0.0446 z m 0.46875,-0.51339 c 0.0222,-0.0246 0.0354,-0.0446 0.0292,-0.0446 -0.006,0 -0.0293,0.0201 -0.0516,0.0446 -0.0222,0.0245 -0.0354,0.0446 -0.0292,0.0446 0.006,0 0.0293,-0.0201 0.0516,-0.0446 z m 0.23722,-0.26228 c 0.0278,-0.0354 0.027,-0.0362 -0.008,-0.008 -0.0215,0.0169 -0.0391,0.0344 -0.0391,0.0391 0,0.0184 0.0183,0.007 0.0475,-0.0306 z m 0.46875,-0.51339 c 0.0278,-0.0354 0.027,-0.0362 -0.008,-0.008 -0.0215,0.0168 -0.0391,0.0344 -0.0391,0.0391 0,0.0184 0.0183,0.007 0.0475,-0.0306 z m 0.71429,-0.78125 c 0.0278,-0.0354 0.027,-0.0362 -0.008,-0.008 -0.0215,0.0168 -0.0391,0.0344 -0.0391,0.0391 0,0.0184 0.0183,0.007 0.0475,-0.0306 z m 0.22321,-0.24554 c 0.0278,-0.0354 0.027,-0.0362 -0.008,-0.008 -0.0215,0.0168 -0.0391,0.0344 -0.0391,0.0391 0,0.0184 0.0183,0.007 0.0475,-0.0306 z"
       id="path2147"
       inkscape:connector-curvature="0"
       transform="scale(0.26458333)"
       sodipodi:nodetypes="ccccccccccccccccccsccsccscccscccccssccccsccscssccccssccccssccscssccscssccccsscccccccccccccccccccccsccccccccccccccccccccscccccccccccccccccccccccccccccccccccsccsssssssssscccscccsssccccscccsssccsssccsssccscsccsssccscsccscscccsccccsccccsccccscc" />
    <path
       style="opacity:1;fill:#ffffff;fill-opacity:1;stroke:#282c00;stroke-width:0.00084364;stroke-miterlimit:4;stroke-dasharray:none;stroke-opacity:1"
       d="m 312.02284,992.58207 -6.02864,-0.0112 0.004,-0.0492 c 0.002,-0.0271 -0.002,-0.0456 -0.009,-0.0412 -0.007,0.004 -0.0129,-5.63518 -0.0129,-12.53239 0,-6.89721 0.006,-12.53659 0.0136,-12.53197 0.007,0.005 0.0109,-0.0164 0.008,-0.0467 l -0.006,-0.0551 6.03407,-0.006 c 5.24418,-0.005 6.03067,-10e-4 6.00807,0.0264 -0.0209,0.0257 -0.019,0.0295 0.009,0.0189 0.0214,-0.008 0.0361,-8.6e-4 0.0372,0.0181 10e-4,0.0172 0.002,5.67644 0.002,12.57599 0,6.89956 -8.4e-4,12.55875 -0.002,12.576 -10e-4,0.019 -0.0158,0.0262 -0.0372,0.0181 -0.0306,-0.0114 -0.0312,-0.008 -0.005,0.0245 0.0168,0.0207 0.0269,0.0352 0.0223,0.0321 -0.005,-0.003 -2.7212,-0.0106 -6.03695,-0.0167 z"
       id="path2157"
       inkscape:connector-curvature="0"
       transform="scale(0.26458333)" />
    <g
       aria-label="ALPHA WAVE"
       transform="matrix(0.39732777,0,0,0.45350934,-47.185331,-186.00308)"
       style="font-style:italic;font-variant:normal;font-weight:bold;font-stretch:normal;font-size:10.66666698px;line-height:1.25;font-family:Kanit;-inkscape-font-specification:'Kanit Bold Italic';letter-spacing:0px;word-spacing:0px;fill:#27196f;fill-opacity:1;stroke:none"
       id="flowRoot839">
      <path
         d="m 366.52669,990.61167 h -2.51953 l -0.22135,-1.97917 h -3.56771 l -1.13281,1.97917 h -2.61068 l 5.8138,-9.69401 h 2.89063 z m -2.92968,-3.71745 -0.39063,-3.48307 -1.9987,3.48307 z"
         style="font-style:italic;font-variant:normal;font-weight:bold;font-stretch:normal;font-size:13.33333397px;font-family:Kanit;-inkscape-font-specification:'Kanit Bold Italic';letter-spacing:-1.04785013px;word-spacing:0px;fill:#27196f;fill-opacity:1"
         id="path869" />
      <path
         d="m 373.77963,990.61167 h -6.9987 l 2.23958,-9.69401 h 2.51302 l -1.80338,7.81901 h 4.48567 z"
         style="font-style:italic;font-variant:normal;font-weight:bold;font-stretch:normal;font-size:13.33333397px;font-family:Kanit;-inkscape-font-specification:'Kanit Bold Italic';letter-spacing:-1.04785013px;word-spacing:0px;fill:#27196f;fill-opacity:1"
         id="path871" />
      <path
         d="m 383.86459,983.59995 q 0,1.73177 -1.4388,2.79297 -1.43229,1.0612 -4.01042,1.0612 h -0.95052 l -0.72917,3.15755 h -2.51302 l 2.23958,-9.69401 h 3.48308 q 0.95052,0 1.65364,0.13021 0.70964,0.13021 1.22396,0.44922 0.50781,0.31901 0.77474,0.83333 0.26693,0.50781 0.26693,1.26953 z m -2.66927,0.24089 q 0,-0.56641 -0.41016,-0.83985 -0.41015,-0.27343 -1.21745,-0.27343 h -1.00911 l -0.67057,2.90364 h 0.89843 q 1.13933,0 1.77084,-0.46224 0.63802,-0.46875 0.63802,-1.32812 z"
         style="font-style:italic;font-variant:normal;font-weight:bold;font-stretch:normal;font-size:13.33333397px;font-family:Kanit;-inkscape-font-specification:'Kanit Bold Italic';letter-spacing:-1.04785013px;word-spacing:0px;fill:#27196f;fill-opacity:1"
         id="path873" />
      <path
         d="m 393.88445,980.91766 -2.23959,9.69401 h -2.51302 l 0.98958,-4.28385 h -3.67838 l -0.98958,4.28385 h -2.51303 l 2.23959,-9.69401 h 2.51302 l -0.82682,3.56771 h 3.67838 l 0.82682,-3.56771 z"
         style="font-style:italic;font-variant:normal;font-weight:bold;font-stretch:normal;font-size:13.33333397px;font-family:Kanit;-inkscape-font-specification:'Kanit Bold Italic';letter-spacing:-1.04785013px;word-spacing:0px;fill:#27196f;fill-opacity:1"
         id="path875" />
      <path
         d="m 402.12696,990.61167 h -2.51953 l -0.22135,-1.97917 h -3.56771 l -1.13281,1.97917 h -2.61068 l 5.8138,-9.69401 h 2.89063 z m -2.92969,-3.71745 -0.39062,-3.48307 -1.9987,3.48307 z"
         style="font-style:italic;font-variant:normal;font-weight:bold;font-stretch:normal;font-size:13.33333397px;font-family:Kanit;-inkscape-font-specification:'Kanit Bold Italic';letter-spacing:-1.04785013px;word-spacing:0px;fill:#27196f;fill-opacity:1"
         id="path877" />
      <path
         d="m 421.51564,980.91766 -4.71354,9.69401 h -2.6823 l -0.41666,-6.42578 -3.14453,6.42578 h -2.78646 l -0.44271,-9.69401 h 2.61068 l 0.0195,6.67318 3.25521,-6.67318 h 2.49349 l 0.29297,6.67318 2.96875,-6.67318 z"
         style="font-style:italic;font-variant:normal;font-weight:bold;font-stretch:normal;font-size:13.33333397px;font-family:Kanit;-inkscape-font-specification:'Kanit Bold Italic';letter-spacing:-1.04785013px;word-spacing:0px;fill:#27196f;fill-opacity:1"
         id="path879" />
      <path
         d="m 428.95737,990.61167 h -2.51953 l -0.22135,-1.97917 h -3.56771 l -1.13281,1.97917 h -2.61068 l 5.8138,-9.69401 h 2.89063 z m -2.92969,-3.71745 -0.39062,-3.48307 -1.9987,3.48307 z"
         style="font-style:italic;font-variant:normal;font-weight:bold;font-stretch:normal;font-size:13.33333397px;font-family:Kanit;-inkscape-font-specification:'Kanit Bold Italic';letter-spacing:-1.04785013px;word-spacing:0px;fill:#27196f;fill-opacity:1"
         id="path881" />
      <path
         d="m 440.24676,980.91766 -5.77474,9.69401 h -2.79948 l -1.29557,-9.69401 h 2.55859 l 0.77474,6.92057 3.86068,-6.92057 z"
         style="font-style:italic;font-variant:normal;font-weight:bold;font-stretch:normal;font-size:13.33333397px;font-family:Kanit;-inkscape-font-specification:'Kanit Bold Italic';letter-spacing:-1.04785013px;word-spacing:0px;fill:#27196f;fill-opacity:1"
         id="path883" />
      <path
         d="m 447.61037,980.91766 -0.42318,1.83594 h -4.52474 l -0.40365,1.73177 h 4.19922 l -0.42968,1.84245 h -4.19922 l -0.56641,2.44791 h 4.52474 l -0.41667,1.83594 h -7.02474 l 2.23959,-9.69401 z"
         style="font-style:italic;font-variant:normal;font-weight:bold;font-stretch:normal;font-size:13.33333397px;font-family:Kanit;-inkscape-font-specification:'Kanit Bold Italic';letter-spacing:-1.04785013px;word-spacing:0px;fill:#27196f;fill-opacity:1"
         id="path885" />
    </g>
  </g>
</svg>
